<?xml version="1.0" encoding="UTF-8" standalone="no"?>
<!-- Created with Inkscape (http://www.inkscape.org/) -->

<svg
   version="1.1"
   id="svg1"
   width="205"
   height="205"
   viewBox="0 0 205 205"
   sodipodi:docname="wiz-icon-master3.svg"
   inkscape:version="1.3.2 (091e20e, 2023-11-25, custom)"
   xmlns:inkscape="http://www.inkscape.org/namespaces/inkscape"
   xmlns:sodipodi="http://sodipodi.sourceforge.net/DTD/sodipodi-0.dtd"
   xmlns="http://www.w3.org/2000/svg"
   xmlns:svg="http://www.w3.org/2000/svg">
  <defs
     id="defs1" />
  <sodipodi:namedview
     id="namedview1"
     pagecolor="#ffffff"
     bordercolor="#000000"
     borderopacity="0.25"
     inkscape:showpageshadow="2"
     inkscape:pageopacity="0.0"
     inkscape:pagecheckerboard="0"
     inkscape:deskcolor="#d1d1d1"
     showgrid="false"
     inkscape:zoom="3.0457331"
     inkscape:cx="102.76672"
     inkscape:cy="108.18413"
     inkscape:window-width="1920"
     inkscape:window-height="1121"
     inkscape:window-x="-7"
     inkscape:window-y="-7"
     inkscape:window-maximized="1"
     inkscape:current-layer="g1" />
  <g
     inkscape:groupmode="layer"
     inkscape:label="Image"
     id="g1">
    <path
       style="fill:none;stroke:#000000;stroke-width:0.120365;stroke-opacity:1"
       d="m 101.1576,96.880209 c -0.5268,0.224147 -0.65813,0.946381 -0.81766,1.427943 -0.413646,1.248633 -0.876716,2.491458 -1.317984,3.731318 -0.144548,0.40615 -0.361949,1.49653 -0.879613,1.57422 -0.479658,0.072 -0.597543,-0.77896 -0.677147,-1.09276 -0.230476,-0.90853 -0.307866,-2.716523 -1.370918,-3.030951 -1.553098,-0.459374 -1.924714,2.032751 -2.291489,3.030951 -0.123686,0.33662 -0.29097,1.03059 -0.722191,1.09276 -0.471659,0.068 -0.590274,-0.65367 -0.670645,-0.97239 -0.281909,-1.11793 -0.503561,-2.25172 -0.783024,-3.370227 -0.121579,-0.486598 -0.483732,-1.345738 -1.135761,-0.854815 -0.550019,0.414117 -0.107766,1.414162 0.02322,1.938102 0.335041,1.34016 0.51606,4.88637 1.971258,5.44745 1.665213,0.64205 2.157361,-1.7141 2.527576,-2.79942 0.09874,-0.28945 0.253107,-1.05545 0.61715,-1.12768 0.417838,-0.0829 0.536725,0.98951 0.601361,1.24805 0.29195,1.1678 0.611794,3.38827 2.390214,2.64692 0.824389,-0.34366 0.992759,-1.40685 1.245631,-2.16546 0.631172,-1.89352 1.416072,-3.747968 1.994382,-5.657164 0.13897,-0.458764 -0.003,-1.365382 -0.70436,-1.066847 m 3.61792,1.396922 c -0.70098,0.301625 -0.43863,1.11113 0.22819,1.216841 0.65445,0.103748 1.38367,0.01783 2.04566,0.01783 h 1.32401 c 1.62781,0 1.94942,0.544418 0.48146,1.505128 -1.08156,0.70783 -3.91724,1.85684 -3.9649,3.30948 -0.0255,0.77705 0.42458,1.37444 1.1965,1.52379 1.6894,0.32687 3.69553,0.041 5.41644,0.041 0.63318,0 1.70026,0.20084 2.25944,-0.14192 0.78435,-0.48077 0.0466,-1.15285 -0.57433,-1.17978 -1.55846,-0.0676 -3.1342,-0.002 -4.69424,-0.002 -0.37688,-2e-5 -1.41949,0.12691 -1.41949,-0.48369 0,-0.51478 0.93487,-0.90406 1.29912,-1.13214 0.99936,-0.62575 2.96474,-1.45971 3.55598,-2.49878 0.42914,-0.754216 0.14654,-1.80325 -0.66768,-2.126548 -1.28935,-0.511957 -3.31729,-0.138196 -4.69378,-0.138196 -0.5404,0 -1.28597,-0.128559 -1.79238,0.08934 m -2.1271,1.358474 c -0.55765,0.38852 0.0742,1.28342 0.63136,0.86485 0.58353,-0.43837 -0.0288,-1.284648 -0.63136,-0.86485 m 0.0855,1.81068 c -0.71893,0.37548 -0.47619,3.12392 -0.361,3.84119 0.0601,0.37453 0.38234,0.78409 0.80698,0.58725 0.72025,-0.33386 0.4767,-3.25306 0.361,-3.95032 -0.0644,-0.38791 -0.40896,-0.68599 -0.80698,-0.47812 z"
       id="path1" />
  </g>
</svg>
