<?xml version="1.0" encoding="UTF-8" standalone="no"?>
<!-- Created with Inkscape (http://www.inkscape.org/) -->

<svg
   version="1.1"
   id="svg1"
   width="256"
   height="256"
   viewBox="0 0 256 256"
   sodipodi:docname="wiz-brand.svg"
   inkscape:version="1.3.2 (091e20e, 2023-11-25, custom)"
   xmlns:inkscape="http://www.inkscape.org/namespaces/inkscape"
   xmlns:sodipodi="http://sodipodi.sourceforge.net/DTD/sodipodi-0.dtd"
   xmlns="http://www.w3.org/2000/svg"
   xmlns:svg="http://www.w3.org/2000/svg">
  <defs
     id="defs1" />
  <sodipodi:namedview
     id="namedview1"
     pagecolor="#ffffff"
     bordercolor="#000000"
     borderopacity="0.25"
     inkscape:showpageshadow="2"
     inkscape:pageopacity="0.0"
     inkscape:pagecheckerboard="0"
     inkscape:deskcolor="#d1d1d1"
     showgrid="false"
     inkscape:zoom="3.4492188"
     inkscape:cx="128"
     inkscape:cy="128"
     inkscape:window-width="1920"
     inkscape:window-height="1121"
     inkscape:window-x="-7"
     inkscape:window-y="-7"
     inkscape:window-maximized="1"
     inkscape:current-layer="g1" />
  <g
     inkscape:groupmode="layer"
     inkscape:label="Image"
     id="g1">
    <path
       style="fill:#0f2432;fill-opacity:1;stroke:#000000;stroke-width:0.121673;stroke-opacity:1"
       d="m 120.65641,126.41374 h 0.24334 c 0.30026,1.06597 0.43247,2.26534 0.86796,3.28339 0.40905,0.95624 1.79685,1.18175 2.46124,0.35356 1.20842,-1.50632 1.69714,-4.36557 2.30832,-6.19207 0.18859,-0.56362 0.81774,-1.58786 0.35534,-2.13725 -0.66008,-0.78427 -1.2472,0.41404 -1.43923,0.92052 -0.53283,1.40535 -0.956,2.85273 -1.48843,4.25855 -0.12886,0.34026 -0.26782,1.16602 -0.66319,1.29634 -0.546,0.17997 -0.69302,-0.84808 -0.77481,-1.17467 -0.261,-1.0421 -0.29788,-2.94765 -1.74887,-2.91254 -1.32638,0.0321 -1.57624,2.04344 -1.94029,3.03422 -0.11513,0.31334 -0.32082,1.21996 -0.82654,1.05299 -0.36686,-0.12112 -0.40436,-0.74352 -0.4759,-1.05299 -0.24375,-1.05439 -0.49091,-2.11566 -0.75979,-3.1635 -0.1245,-0.48514 -0.41619,-1.27916 -1.08004,-1.00239 -0.76589,0.3193 -0.20202,1.66673 -0.0793,2.21912 0.30364,1.36719 0.44105,3.58183 1.23522,4.73989 1.0926,1.59321 2.47787,0.0437 2.90165,-1.08971 0.30404,-0.81315 0.57374,-1.62984 0.90335,-2.43346 m 9.02182,-3.40345 c -0.74459,0.44168 -0.17335,1.16723 0.46913,1.20799 0.64409,0.0409 1.30097,0.005 1.9463,0.005 h 1.21672 c 1.84483,0 1.84942,0.58809 0.36502,1.54428 -1.07979,0.69556 -3.99398,1.8968 -3.84207,3.4443 0.0675,0.68756 0.62027,1.2072 1.28695,1.3124 1.7794,0.28077 3.7948,0.026 5.59694,0.026 0.56852,0 1.78429,0.22659 2.22147,-0.212 0.70837,-0.71065 -0.31842,-1.12243 -0.88307,-1.12632 -1.50048,-0.0103 -3.00136,4.9e-4 -4.50189,-9e-5 -0.34776,-1.2e-4 -1.29952,0.114 -1.38328,-0.39102 -0.0796,-0.4797 0.81826,-0.89246 1.13993,-1.09243 1.06258,-0.66056 3.12743,-1.53568 3.73318,-2.6583 0.39886,-0.73924 0.0854,-1.73866 -0.69314,-2.06243 -1.31962,-0.54881 -3.56454,-0.1228 -4.9868,-0.1228 -0.49257,0 -1.24487,-0.13627 -1.68539,0.12505 m -1.94686,1.2186 c -0.69216,0.38747 -0.12127,1.46086 0.5724,1.08408 0.71098,-0.38619 0.15647,-1.4921 -0.5724,-1.08408 m 0.11078,1.79562 c -0.85306,0.27769 -0.59319,3.17605 -0.47571,3.91719 0.0635,0.40068 0.37473,0.79052 0.82664,0.65005 0.82505,-0.25646 0.64083,-3.34533 0.45506,-4.05398 -0.0957,-0.36507 -0.41464,-0.64066 -0.80599,-0.51326 z"
       id="path1" />
  </g>
</svg>
