<?xml version="1.0" encoding="UTF-8" standalone="no"?>
<!-- Created with Inkscape (http://www.inkscape.org/) -->

<svg
   version="1.1"
   id="svg1"
   width="205"
   height="205"
   viewBox="0 0 205 205"
   sodipodi:docname="wiz-icon-master.svg"
   inkscape:version="1.3.2 (091e20e, 2023-11-25, custom)"
   xmlns:inkscape="http://www.inkscape.org/namespaces/inkscape"
   xmlns:sodipodi="http://sodipodi.sourceforge.net/DTD/sodipodi-0.dtd"
   xmlns="http://www.w3.org/2000/svg"
   xmlns:svg="http://www.w3.org/2000/svg">
  <defs
     id="defs1" />
  <sodipodi:namedview
     id="namedview1"
     pagecolor="#ffffff"
     bordercolor="#000000"
     borderopacity="0.25"
     inkscape:showpageshadow="2"
     inkscape:pageopacity="0.0"
     inkscape:pagecheckerboard="0"
     inkscape:deskcolor="#d1d1d1"
     showgrid="false"
     inkscape:zoom="3.0457331"
     inkscape:cx="102.60256"
     inkscape:cy="108.18413"
     inkscape:window-width="1920"
     inkscape:window-height="1121"
     inkscape:window-x="-7"
     inkscape:window-y="-7"
     inkscape:window-maximized="1"
     inkscape:current-layer="g1" />
  <g
     inkscape:groupmode="layer"
     inkscape:label="Image"
     id="g1">
    <path
       style="fill:none;stroke:#000000;stroke-opacity:1"
       d="m 93.818763,63.743598 c -4.376716,1.86222 -5.467827,7.86258 -6.793205,11.86342 -3.436562,10.37371 -7.283775,20.69918 -10.949852,31.000002 -1.200913,3.37429 -3.007088,12.43325 -7.307869,13.0787 -3.985023,0.59807 -4.964417,-6.47166 -5.625771,-9.0787 C 61.227252,103.0589 60.5843,88.037988 51.752403,85.425698 c -12.903218,-3.8165 -15.99062,16.888212 -19.037808,25.181322 -1.027593,2.79666 -2.417394,8.56216 -6,9.0787 -3.918564,0.56499 -4.90403,-5.43078 -5.571758,-8.0787 -2.342108,-9.28777 -4.183607,-18.707422 -6.505402,-28.000002 -1.010082,-4.04268 -4.018865,-11.18046 -9.4359562,-7.10185 -4.56959289,3.44051 -0.8953299,11.74893 0.1929011,16.10185 2.7835388,11.134162 4.2874528,40.596252 16.3773161,45.257722 13.834672,5.3342 17.923463,-14.24089 20.999227,-23.25772 0.82032,-2.40482 2.102833,-8.76875 5.127316,-9.36883 3.471424,-0.68875 4.459144,8.22084 4.996143,10.36883 2.425533,9.70213 5.082813,28.14993 19.858021,21.99074 6.849067,-2.8551 8.247894,-11.68812 10.34877,-17.99074 5.243828,-15.73149 11.764809,-31.138302 16.569448,-47.000002 1.154519,-3.81144 -0.0226,-11.34367 -5.851858,-8.86342 m 30.057877,11.6057 c -5.82379,2.50591 -3.64422,9.23132 1.89583,10.10958 5.43713,0.86194 11.49554,0.14814 16.99537,0.14814 h 11 c 13.52393,0 16.19585,4.52307 4,12.50463 -8.98572,5.880692 -32.54463,15.426742 -32.94058,27.495372 -0.21181,6.45581 3.52736,11.41888 9.94058,12.65973 14.03558,2.71561 30.70261,0.34027 45,0.34027 5.26056,0 14.12587,1.66864 18.77161,-1.17902 6.51638,-3.99429 0.38684,-9.578 -4.77161,-9.80169 -12.94772,-0.56147 -26.03905,-0.0185 -39,-0.0193 -3.13115,-2e-4 -11.79321,1.05435 -11.79321,-4.01852 0,-4.27684 7.76696,-7.51095 10.79321,-9.40586 8.30273,-5.19881 24.63121,-12.12737 29.54321,-20.760032 3.56539,-6.26603 1.21749,-14.98146 -5.54707,-17.66744 -10.71198,-4.25336 -27.56026,-1.14814 -38.99614,-1.14814 -4.48972,0 -10.68391,-1.06807 -14.8912,0.74228 m -17.67207,11.28627 c -4.63303,3.22783 0.6164,10.66265 5.24537,7.18518 4.84796,-3.64198 -0.23934,-10.67288 -5.24537,-7.18518 m 0.71065,15.043212 c -5.97291,3.11944 -3.95623,25.95362 -2.99923,31.9128 0.49969,3.1116 3.1765,6.5142 6.70447,4.87887 5.98386,-2.77372 3.96047,-27.02661 2.99923,-32.81945 -0.53477,-3.2228 -3.39771,-5.699222 -6.70447,-3.97222 z"
       id="path1" />
  </g>
</svg>
